<svg width="109" height="99" viewBox="0 0 109 99" fill="none" xmlns="http://www.w3.org/2000/svg">
<g clip-path="url(#clip0)">
<path d="M63.375 19.3125L60.4688 26.5312L45.6094 56.7656L37.9219 57.2344L23.0625 26.0625L20.625 19.3125V67.3125L29.7656 69.2344V75H3.84375V69.2344L12 67.3125V15.4688L3.84375 13.5469V8.29688L25.4531 7.78125L42.7969 46.2188L60.9375 8.29688L81.1406 7.78125V13.5469L72.9375 15.4688V67.3125L81.1406 69.2344V75H54.2344V69.2344L63.375 67.3125V19.3125Z" fill="#F9F9F9"/>
<mask id="mask0" mask-type="alpha" maskUnits="userSpaceOnUse" x="3" y="7" width="79" height="68">
<path d="M63.375 19.3125L60.4688 26.5312L45.6094 56.7656L37.9219 57.2344L23.0625 26.0625L20.625 19.3125V67.3125L29.7656 69.2344V75H3.84375V69.2344L12 67.3125V15.4688L3.84375 13.5469V8.29688L25.4531 7.78125L42.7969 46.2188L60.9375 8.29688L81.1406 7.78125V13.5469L72.9375 15.4688V67.3125L81.1406 69.2344V75H54.2344V69.2344L63.375 67.3125V19.3125Z" fill="#F9F9F9"/>
</mask>
<g mask="url(#mask0)">
<path d="M87 74L74.434 61L51.6439 69.5735L50 69.6667L87 74Z" fill="#A9A9A9"/>
<path d="M71 6L51 17.0303L65 58L71 6Z" fill="#A9A9A9"/>
<path d="M-0.688958 79.3469C14.9023 74.31 38.8242 54.1138 25.1754 7L70 59.3696L-0.688958 79.3469C-1.48293 79.6034 -2.2553 79.8206 -3 80L-0.688958 79.3469Z" fill="#A9A9A9"/>
<path d="M18.5 52L12 12.5L25.5 8.5L18.5 52Z" fill="#A9A9A9"/>
</g>
<path d="M81.1875 82.875C81.1875 82.9375 81.9844 83.1094 83.5781 83.3906C85.1719 83.6406 87.0625 83.7656 89.25 83.7656C96.4688 83.7656 100.094 81.2344 100.125 76.1719C100.125 74.1094 99.2344 72.5625 97.4531 71.5312C95.7031 70.4688 92.9688 69.3594 89.25 68.2031C85.8438 67.1094 83.0781 66.0625 80.9531 65.0625C78.8594 64.0312 77.0625 62.5625 75.5625 60.6562C74.0625 58.7188 73.3125 56.2188 73.3125 53.1562C73.3125 48.3438 74.9375 44.6406 78.1875 42.0469C81.4688 39.4531 85.7031 38.1562 90.8906 38.1562C93.1406 38.1562 95.4688 38.375 97.875 38.8125C100.312 39.2188 102.375 39.6562 104.062 40.125C105.781 40.5938 106.859 40.9062 107.297 41.0625L107.016 54H100.781L99.2344 46.5C99.0469 46.4375 98.625 46.3125 97.9688 46.125C97.3438 45.9375 96.4531 45.7656 95.2969 45.6094C94.1406 45.4531 92.8594 45.375 91.4531 45.375C85.7656 45.375 82.9219 47.5156 82.9219 51.7969C82.9219 53.8594 83.8281 55.4531 85.6406 56.5781C87.4844 57.6719 90.25 58.8281 93.9375 60.0469C97.25 61.2031 99.9688 62.2812 102.094 63.2812C104.219 64.25 106.016 65.6719 107.484 67.5469C108.953 69.3906 109.688 71.7188 109.688 74.5312C109.688 79.8438 107.688 83.9062 103.688 86.7188C99.6875 89.5312 94.6562 90.9375 88.5938 90.9375C85.9688 90.9375 83.5312 90.7812 81.2812 90.4688C79.0312 90.1562 77.2344 89.8438 75.8906 89.5312C74.5469 89.2188 73.7188 88.9844 73.4062 88.8281V74.625H80.1562L81.1875 82.875Z" fill="#F9F9F9"/>
<mask id="mask1" mask-type="alpha" maskUnits="userSpaceOnUse" x="73" y="38" width="37" height="53">
<path d="M81.1875 82.875C81.1875 82.9375 81.9844 83.1094 83.5781 83.3906C85.1719 83.6406 87.0625 83.7656 89.25 83.7656C96.4688 83.7656 100.094 81.2344 100.125 76.1719C100.125 74.1094 99.2344 72.5625 97.4531 71.5312C95.7031 70.4688 92.9688 69.3594 89.25 68.2031C85.8438 67.1094 83.0781 66.0625 80.9531 65.0625C78.8594 64.0312 77.0625 62.5625 75.5625 60.6562C74.0625 58.7188 73.3125 56.2188 73.3125 53.1562C73.3125 48.3438 74.9375 44.6406 78.1875 42.0469C81.4688 39.4531 85.7031 38.1562 90.8906 38.1562C93.1406 38.1562 95.4688 38.375 97.875 38.8125C100.312 39.2188 102.375 39.6562 104.062 40.125C105.781 40.5938 106.859 40.9062 107.297 41.0625L107.016 54H100.781L99.2344 46.5C99.0469 46.4375 98.625 46.3125 97.9688 46.125C97.3438 45.9375 96.4531 45.7656 95.2969 45.6094C94.1406 45.4531 92.8594 45.375 91.4531 45.375C85.7656 45.375 82.9219 47.5156 82.9219 51.7969C82.9219 53.8594 83.8281 55.4531 85.6406 56.5781C87.4844 57.6719 90.25 58.8281 93.9375 60.0469C97.25 61.2031 99.9688 62.2812 102.094 63.2812C104.219 64.25 106.016 65.6719 107.484 67.5469C108.953 69.3906 109.688 71.7188 109.688 74.5312C109.688 79.8438 107.688 83.9062 103.688 86.7188C99.6875 89.5312 94.6562 90.9375 88.5938 90.9375C85.9688 90.9375 83.5312 90.7812 81.2812 90.4688C79.0312 90.1562 77.2344 89.8438 75.8906 89.5312C74.5469 89.2188 73.7188 88.9844 73.4062 88.8281V74.625H80.1562L81.1875 82.875Z" fill="#F9F9F9"/>
</mask>
<g mask="url(#mask1)">
<path d="M73.5 75L89 91L93 79.5L109 75L92 73L99 65H81L73.5 52L85 39.5L101 36V39.5L109 56L85 39.5V62L89 59L99 65L109 75L103.5 86.5L89 91L66.5 81L73.5 75Z" fill="#A9A9A9"/>
</g>
</g>
<defs>
<clipPath id="clip0">
<rect width="109" height="99" fill="white"/>
</clipPath>
</defs>
</svg>
