<svg width="25" height="46" viewBox="0 0 25 46" fill="none" xmlns="http://www.w3.org/2000/svg">
<path d="M18.0938 22.7578C15.5 22.7578 12.7734 22.7578 9.91406 22.7578C7.07031 22.7578 4.83594 22.8594 3.21094 23.0625V23.6016C3.28906 27.6328 4.25781 30.9062 6.11719 33.4219C8.17969 36.2188 11.3828 38.0703 15.7266 38.9766C17.8203 39.4141 19.1172 39.6328 19.6172 39.6328C20.1172 39.6328 20.5781 39.5234 21 39.3047C21.4219 39.0859 21.8047 38.8438 22.1484 38.5781C22.4922 38.3125 22.8047 38.0703 23.0859 37.8516C23.3828 37.6328 23.6562 37.5234 23.9062 37.5234C24.3594 37.5234 24.5859 37.7812 24.5859 38.2969C24.5859 38.8125 24.4531 39.4062 24.1875 40.0781C23.6094 41.5312 23.2891 42.9922 23.2266 44.4609C23.1953 45.1484 22.9531 45.4922 22.5 45.4922C21.8906 45.4922 21.1094 44.7344 20.1562 43.2188C19.5938 42.3438 18.7578 41.8125 17.6484 41.625C8.64844 40.3438 3.24219 36.125 1.42969 28.9688C1.05469 27.4375 0.867188 25.5781 0.867188 23.3906C0.867188 21.1875 1.20312 19.1406 1.875 17.25C2.5625 15.3438 3.45312 13.6797 4.54688 12.2578C5.64062 10.8203 6.86719 9.60938 8.22656 8.625C9.58594 7.625 10.9531 6.8125 12.3281 6.1875C14.7969 5.04688 17.1484 4.39062 19.3828 4.21875C20.1797 4.1875 21 3.57812 21.8438 2.39062C22.6719 1.25 23.3359 0.679688 23.8359 0.679688C24.6172 0.679688 24.8672 1.20312 24.5859 2.25C24.3672 3.125 24.4453 4.67969 24.8203 6.91406C24.9141 7.49219 24.875 7.89844 24.7031 8.13281C24.5312 8.36719 24.3516 8.48438 24.1641 8.48438C23.7734 8.48438 23.3906 8.20312 23.0156 7.64062C22.4062 6.76562 21.4531 6.32812 20.1562 6.32812C18.6719 6.32812 17.3984 6.49219 16.3359 6.82031C15.2891 7.13281 14.2422 7.5625 13.1953 8.10938C12.1641 8.64062 11.125 9.30469 10.0781 10.1016C9.03125 10.8984 8.0625 11.8125 7.17188 12.8438C5.17188 15.1875 3.92969 17.7422 3.44531 20.5078C3.88281 20.5391 4.35156 20.5547 4.85156 20.5547H6.49219C9.27344 20.5547 13.1953 20.4609 18.2578 20.2734C18.5547 20.2578 18.9844 20.0312 19.5469 19.5938C21.1875 18.3438 22.2031 17.7188 22.5938 17.7188C23.1562 17.7188 23.4375 18.0781 23.4375 18.7969L22.7578 21.8906C22.6797 22.3594 22.6406 22.8594 22.6406 23.3906L22.6875 24.3047C22.6875 25.0859 22.4297 25.4766 21.9141 25.4766C21.6016 25.4766 21.3125 25.3438 21.0469 25.0781C20.7969 24.7969 20.5312 24.4844 20.25 24.1406C19.5156 23.2656 18.7969 22.8047 18.0938 22.7578Z" fill="white"/>
</svg>
