<svg width="540" height="55" viewBox="0 0 540 55" fill="none" xmlns="http://www.w3.org/2000/svg">
<g style="mix-blend-mode:luminosity" opacity="0.95" filter="url(#filter0_d)">
<path d="M12.4589 32.7521C12.4487 34.6721 13.8036 35.6393 16.5236 35.6537L17.7716 35.6604L17.7601 37.8203L4.12829 37.748L4.13975 35.588L5.81998 35.549C8.28429 35.498 9.52128 34.5606 9.53096 32.7366L9.66518 7.44096C9.67248 6.06498 8.92473 5.261 7.42194 5.02902L4.30199 5.01246L4.31345 2.85249L12.5693 2.8963L27.6417 30.0007L41.4169 3.04936L51.2568 3.10157L51.2453 5.26155L47.8854 5.24372C46.6042 5.46092 45.96 6.25752 45.9527 7.6335L45.8184 32.9291C45.8083 34.8491 47.1472 35.8162 49.8351 35.8305L51.0831 35.8371L51.0716 37.9971L35.8078 37.9161L35.8193 35.7561L37.4995 35.717C39.9638 35.6661 41.2008 34.7287 41.2105 32.9047L41.3371 9.04903L26.9816 36.8132L12.573 11.2484L12.4589 32.7521ZM89.6805 36.0419L92.3205 36.0559L92.3091 38.2159L78.0053 38.14L78.0167 35.98L80.8967 35.9953C81.5687 35.9989 82.0337 35.8093 82.2917 35.4267C82.5817 35.0442 82.7275 34.709 82.7291 34.421L82.7324 33.797L79.7055 25.2848L66.2657 25.2135L63.2446 33.6936L63.2416 34.2696C63.2399 34.5896 63.3981 34.9264 63.7162 35.2801C64.0345 35.6018 64.4814 35.8122 65.0569 35.9113L67.9369 35.9265L67.9254 38.0865L55.3976 38.02L55.409 35.8601L57.809 35.8728C58.3855 35.7799 58.9308 35.5268 59.4451 35.1135C59.9273 34.7 60.2658 34.2218 60.4607 33.6788L71.7618 2.58637L76.0817 2.60929L87.0523 33.8199C87.4935 35.1023 88.3696 35.843 89.6805 36.0419ZM67.1416 22.9621L78.9495 23.0248L73.1334 6.4337L67.1416 22.9621ZM115.063 7.42419L114.921 34.2078C115.491 35.3629 116.064 35.9739 116.639 36.041L121.967 36.0692L121.955 38.3732L103.523 38.2754L103.535 36.0674L108.095 36.0916C108.671 36.0307 109.153 35.7932 109.539 35.3793C109.925 34.9653 110.183 34.5027 110.314 33.9914L110.459 6.63175C110.143 5.92606 109.649 5.47544 108.978 5.27987C101.939 5.24252 98.4102 6.79182 98.3936 9.92778L98.3849 11.5598L96.273 11.5485L96.3188 2.90867L129.582 3.08516L129.537 11.725L127.425 11.7138L127.433 10.0819C127.45 6.9459 125.698 5.36859 122.178 5.34991L116.514 5.31986C115.68 5.76344 115.196 6.46488 115.063 7.42419ZM152.188 7.62117L152.045 34.4048C152.615 35.5598 153.188 36.1709 153.764 36.2379L159.092 36.2662L159.079 38.5702L140.648 38.4724L140.659 36.2644L145.219 36.2886C145.796 36.2277 146.277 35.9902 146.663 35.5763C147.049 35.1623 147.308 34.6997 147.439 34.1883L147.584 6.82873C147.267 6.12304 146.774 5.67242 146.103 5.47686C139.063 5.4395 135.535 6.9888 135.518 10.1248L135.509 11.7567L133.397 11.7455L133.443 3.10565L166.707 3.28215L166.661 11.922L164.549 11.9108L164.558 10.2788C164.574 7.14289 162.823 5.56557 159.303 5.54689L153.639 5.51684C152.804 5.96042 152.321 6.66186 152.188 7.62117ZM180.815 35.0855C181.034 36.0466 181.768 36.5305 183.016 36.5372L186.136 36.5537L186.124 38.7137L170.86 38.6327L170.872 36.4727L174.28 36.4908C175.144 36.3674 175.803 35.8909 176.255 35.0613L176.402 7.36565C176.278 6.62898 175.529 6.145 174.154 5.9137L171.034 5.89714L171.045 3.73717L186.309 3.81816L186.298 5.97813L182.938 5.9603C182.073 6.08372 181.415 6.56023 180.962 7.38984L180.896 19.8217L198.992 19.9177L199.058 7.48586C198.934 6.74919 198.184 6.26521 196.81 6.03391L193.69 6.01735L193.701 3.85738L208.965 3.93837L208.953 6.09834L205.594 6.08052C204.729 6.20393 204.07 6.68044 203.618 7.51005L203.471 35.2057C203.69 36.1668 204.423 36.6507 205.671 36.6574L208.791 36.6739L208.78 38.8339L193.516 38.7529L193.527 36.5929L196.935 36.611C197.8 36.4876 198.459 36.0111 198.911 35.1815L198.98 22.1737L180.884 22.0776L180.815 35.0855ZM231.475 22.7119C228.882 22.6981 226.155 22.6837 223.296 22.6685C220.452 22.6534 218.217 22.7431 216.591 22.9376L216.588 23.4767C216.645 27.5083 217.596 30.7868 219.442 33.3123C221.49 36.12 224.683 37.9886 229.022 38.9179C231.114 39.3665 232.409 39.5921 232.909 39.5947C233.409 39.5974 233.871 39.4905 234.294 39.274C234.717 39.0574 235.101 38.8173 235.446 38.5535C235.791 38.2897 236.105 38.0492 236.387 37.8319C236.685 37.6147 236.959 37.5068 237.209 37.5081C237.663 37.5106 237.888 37.7696 237.885 38.2852C237.882 38.8008 237.746 39.3938 237.477 40.0643C236.891 41.5143 236.563 42.9735 236.493 44.4419C236.458 45.1293 236.214 45.4717 235.761 45.4693C235.152 45.4661 234.374 44.7041 233.429 43.1835C232.871 42.3055 232.038 41.7698 230.93 41.5765C221.937 40.2475 216.553 36.0001 214.779 28.8343C214.412 27.3011 214.234 25.4408 214.246 23.2533C214.257 21.0502 214.604 19.0051 215.286 17.1181C215.984 15.2155 216.883 13.5562 217.984 12.1402C219.086 10.7085 220.319 9.50407 221.683 8.52692C223.048 7.53415 224.419 6.72892 225.798 6.11122C228.272 4.98371 230.627 4.33995 232.863 4.17993C233.66 4.15291 234.483 3.54789 235.333 2.36489C236.168 1.22867 236.835 0.661891 237.335 0.664544C238.116 0.66869 238.363 1.19345 238.076 2.23881C237.853 3.11264 237.923 4.66772 238.286 6.90405C238.377 7.48267 238.335 7.88871 238.162 8.12217C237.989 8.35563 237.809 8.47186 237.621 8.47086C237.231 8.46879 236.849 8.18551 236.477 7.62103C235.873 6.74281 234.922 6.30026 233.625 6.29338C232.141 6.2855 230.866 6.44281 229.802 6.76529C228.754 7.07223 227.704 7.49636 226.655 8.03767C225.621 8.56344 224.578 9.22198 223.527 10.0133C222.476 10.8046 221.502 11.7135 220.606 12.74C218.594 15.0731 217.338 17.6212 216.839 20.3842C217.276 20.4178 217.745 20.4359 218.245 20.4385L219.886 20.4472C222.667 20.462 226.589 20.3891 231.653 20.2284C231.95 20.2144 232.38 19.9901 232.945 19.5556C234.592 18.3143 235.611 17.6947 236.002 17.6968C236.565 17.6998 236.844 18.0606 236.84 18.7794L236.144 21.8695C236.063 22.3378 236.022 22.8376 236.019 23.3688L236.061 24.2831C236.057 25.0644 235.797 25.4536 235.281 25.4509C234.969 25.4492 234.68 25.3149 234.416 25.0478C234.168 24.7653 233.904 24.4514 233.624 24.1061C232.894 23.2272 232.178 22.7625 231.475 22.7119ZM246.649 5.67435L244.009 5.66034L244.021 3.50037L258.805 3.57882L258.793 5.73878L255.913 5.7235C255.241 5.71994 254.76 5.90939 254.47 6.29186C254.212 6.64249 254.083 6.97781 254.081 7.2978L254.078 7.92179L262.717 35.28L269.495 15.2517L267.565 7.99336C267.22 6.67951 266.504 5.9397 265.417 5.77393L263.353 5.76298L263.365 3.60301L276.516 3.67279L276.505 5.83276L274.201 5.82054C273.529 5.81697 273.048 6.00642 272.758 6.38889C272.5 6.73953 272.37 7.07484 272.369 7.39484L272.365 8.01883L280.332 35.3735L288.973 8.10695L288.976 7.53096C288.978 7.21096 288.82 6.89012 288.501 6.56842C288.183 6.21473 287.736 5.98836 287.161 5.8893L284.281 5.87402L284.292 3.71405L296.82 3.78053L296.809 5.94049L294.409 5.92776C293.832 6.0207 293.287 6.28981 292.772 6.73509C292.258 7.14837 291.92 7.61058 291.757 8.12172L281.704 39.2208L276.904 39.1954L270.766 20.0105L264.088 39.1274L259.288 39.1019L249.278 7.89633C248.868 6.61414 247.992 5.87348 246.649 5.67435ZM333.182 5.55748C333.278 5.49399 333.232 5.22174 333.042 4.74073C332.853 4.25972 332.727 3.85905 332.665 3.53871L335.065 3.55145L339.678 11.64L338.328 12.7369L337.327 11.4356L335.417 9.6014C334.366 8.53981 333.33 7.7823 332.309 7.32887C331.319 6.87562 329.816 6.64364 327.8 6.63294C325.784 6.62225 324.053 7.31707 322.605 8.71741C321.158 10.1177 320.43 11.5539 320.422 13.0259C320.414 14.4979 320.889 15.6204 321.844 16.3935C322.8 17.1666 323.949 17.8447 325.29 18.4278C326.663 19.0111 327.685 19.3845 328.356 19.5481C331.935 20.4311 334.522 21.4208 336.116 22.5173C339.177 24.5816 340.699 27.2297 340.682 30.4616C340.673 32.2216 340.2 33.7871 339.265 35.1582C338.362 36.4974 337.461 37.4526 336.562 38.0239C334.314 39.484 331.302 40.204 327.526 40.184C325.254 40.1719 323.177 39.6169 321.295 38.5189L320.577 38.0831L320.669 38.9476C320.763 39.2681 320.857 39.5726 320.952 39.8611L318.552 39.8483L313.939 31.7598L315.289 30.6629L316.29 31.9642L318.2 33.7984C320.523 36.2107 323.093 37.4244 325.909 37.4393C326.005 37.4399 326.101 37.4404 326.197 37.4409C329.109 37.3603 331.417 36.5886 333.121 35.1256C334.857 33.6628 335.729 32.1314 335.738 30.5314C335.746 28.8994 335.432 27.7617 334.796 27.1183C333.427 25.7351 332.263 24.8969 331.305 24.6038C326.609 23.1709 322.952 21.8074 320.335 20.5135C317.271 18.9612 315.747 16.6171 315.764 13.4812L315.765 13.2892C315.773 11.7212 316.133 10.2991 316.843 9.02284C317.586 7.74676 318.536 6.75979 319.691 6.06191C322.035 4.66632 324.374 3.97473 326.71 3.98712C329.046 3.99952 331.204 4.52297 333.182 5.55748ZM355.193 34.2347C355.181 36.3786 356.6 37.4582 359.448 37.4733L360.504 37.4789L360.492 39.6389L346.38 39.564L346.392 37.404L347.592 37.3624C350.377 37.2812 351.774 36.2326 351.785 34.2166L351.922 8.29696C351.798 7.56029 351.049 7.0763 349.674 6.84501L346.554 6.82845L346.566 4.66848L355.445 4.7156L376.146 29.4498L376.248 10.3461C376.26 8.10609 374.922 6.97897 372.234 6.96471L370.89 6.95758L370.901 4.79761L385.013 4.87248L385.001 7.08045L383.753 7.07383C381.033 7.0594 379.667 8.15617 379.656 10.3641L379.492 41.1797L355.31 12.203L355.193 34.2347ZM411.698 36.3105C411.917 37.2717 412.65 37.7556 413.898 37.7622L417.018 37.7788L417.007 39.9387L401.743 39.8577L401.755 37.6978L405.163 37.6679C406.059 37.5446 406.718 37.0841 407.138 36.2863L407.201 24.4305L396.965 8.53595C396.521 7.73359 395.532 7.26433 393.997 7.12818L390.301 7.06057L390.312 4.9006L407.352 4.99101L407.341 7.15099L404.845 7.13774C403.596 7.35512 402.889 7.83138 402.725 8.56652L410.244 20.8946L418.085 8.64802C417.929 7.91118 417.211 7.42736 415.933 7.19657L413.341 7.18282L413.352 5.02285L428.04 5.10078L428.028 7.35675L423.564 7.33307C422.539 7.45563 421.785 7.88364 421.301 8.61708L411.769 23.0147L411.698 36.3105ZM452.388 4.84597C454.5 4.85718 456.559 5.74811 458.566 7.51879C460.572 9.25746 462.177 11.506 463.378 14.2644C464.579 17.0228 465.173 19.778 465.158 22.53C465.144 25.2499 464.521 27.9667 463.291 30.6802C462.093 33.3619 460.401 35.6089 458.215 37.4213C456.061 39.2339 453.752 40.1337 451.289 40.1206L431.705 40.0167L431.716 37.8568L435.124 37.8748C436.021 37.7516 436.679 37.2911 437.1 36.4933L437.245 9.08568C437.152 8.54118 436.898 8.07583 436.484 7.68963C436.103 7.2716 435.608 7.01297 435 6.91374L431.881 6.89719L431.892 4.73722L452.388 4.84597ZM449.333 37.7102C451.349 37.7209 453.177 36.9786 454.817 35.4833C456.457 33.988 457.699 32.1065 458.543 29.839C459.419 27.5396 459.865 25.0299 459.879 22.31C459.894 19.558 459.475 17.0277 458.623 14.7192C457.772 12.3786 456.518 10.516 454.861 9.13115C453.236 7.74651 451.352 7.04851 449.208 7.03713L443.784 7.00835C442.919 7.13176 442.261 7.60827 441.809 8.43789L441.664 35.7015C441.819 36.6303 442.311 37.289 443.141 37.6774L449.333 37.7102ZM487.269 24.0691C484.675 24.0554 481.948 24.0409 479.089 24.0257C476.245 24.0106 474.01 24.1003 472.384 24.2948L472.382 24.8339C472.438 28.8655 473.39 32.144 475.236 34.6695C477.283 37.4773 480.477 39.3458 484.815 40.2751C486.907 40.7237 488.203 40.9493 488.703 40.952C489.203 40.9546 489.664 40.8477 490.087 40.6312C490.51 40.4147 490.894 40.1745 491.239 39.9107C491.584 39.6469 491.898 39.4064 492.181 39.1892C492.479 38.972 492.753 38.8641 493.003 38.8654C493.456 38.8678 493.681 39.1268 493.678 39.6424C493.676 40.158 493.54 40.7511 493.27 41.4215C492.685 42.8716 492.357 44.3308 492.286 45.7992C492.251 46.4865 492.007 46.829 491.554 46.8266C490.945 46.8233 490.168 46.0614 489.223 44.5407C488.665 43.6627 487.832 43.1271 486.723 42.9337C477.73 41.6047 472.346 37.3573 470.572 30.1916C470.205 28.6583 470.027 26.798 470.039 24.6105C470.051 22.4074 470.397 20.3624 471.079 18.4753C471.777 16.5728 472.676 14.9134 473.778 13.4974C474.879 12.0657 476.112 10.8613 477.477 9.88416C478.841 8.89139 480.213 8.08615 481.591 7.46846C484.066 6.34095 486.421 5.69718 488.656 5.53717C489.453 5.51015 490.277 4.90513 491.127 3.72213C491.961 2.58591 492.628 2.01913 493.128 2.02178C493.909 2.02593 494.156 2.55068 493.87 3.59605C493.646 4.46988 493.716 6.02496 494.079 8.26129C494.17 8.83991 494.129 9.24594 493.956 9.4794C493.782 9.71286 493.602 9.8291 493.415 9.8281C493.024 9.82603 492.643 9.54275 492.271 8.97827C491.666 8.10005 490.715 7.6575 489.418 7.65062C487.934 7.64274 486.66 7.80004 485.595 8.12253C484.547 8.42947 483.498 8.85359 482.448 9.39491C481.414 9.92068 480.371 10.5792 479.32 11.3705C478.269 12.1618 477.296 13.0707 476.4 14.0973C474.387 16.4304 473.131 18.9784 472.632 21.7414C473.07 21.775 473.538 21.7931 474.038 21.7958L475.679 21.8045C478.46 21.8192 482.382 21.7463 487.446 21.5857C487.743 21.5716 488.174 21.3473 488.739 20.9128C490.386 19.6715 491.405 19.0519 491.795 19.054C492.358 19.057 492.637 19.4179 492.633 20.1366L491.937 23.2267C491.857 23.695 491.815 24.1948 491.812 24.7261L491.854 25.6404C491.85 26.4216 491.59 26.8108 491.074 26.8081C490.762 26.8065 490.474 26.6721 490.209 26.4051C489.961 26.1225 489.697 25.8086 489.418 25.4634C488.688 24.5845 487.972 24.1197 487.269 24.0691ZM532.517 38.3916L535.205 38.4059L535.193 40.5658L519.929 40.4848L519.941 38.3249L523.301 38.3427C523.973 38.3463 524.31 38.1881 524.311 37.8681C524.313 37.6441 524.186 37.3714 523.932 37.05L514.205 24.6622L509.933 24.6396L509.868 36.8794C509.864 37.8074 510.581 38.2752 512.021 38.2829L515.189 38.2997L515.178 40.4596L499.626 40.3771L499.637 38.2171L503.093 38.2355C503.573 38.238 504.022 38.1124 504.439 37.8586C504.889 37.573 505.114 37.2382 505.116 36.8542L505.262 9.39858C505.265 8.85459 505.044 8.35741 504.598 7.90704C504.184 7.45683 503.642 7.22995 502.97 7.22639L499.802 7.20958L499.813 5.04961L517.237 5.14206C520.725 5.16056 523.456 6.15107 525.429 8.11357C527.435 10.0442 528.43 12.4816 528.415 15.4255C528.385 20.8974 525.297 23.9371 519.15 24.5445L528.972 37.0768C529.703 37.9447 530.885 38.3829 532.517 38.3916ZM510.015 9.1838L509.945 22.4796L516.137 22.5125C520.873 22.5376 523.253 20.1502 523.279 15.3503C523.304 10.5183 521.83 7.90247 518.856 7.50268C517.865 7.36942 516.345 7.29736 514.298 7.28649C512.25 7.27562 511.017 7.46109 510.599 7.84287C510.213 8.19283 510.018 8.63981 510.015 9.1838Z" fill="black"/>
</g>
<defs>
<filter id="filter0_d" x="0.128296" y="0.664536" width="539.076" height="54.162" filterUnits="userSpaceOnUse" color-interpolation-filters="sRGB">
<feFlood flood-opacity="0" result="BackgroundImageFix"/>
<feColorMatrix in="SourceAlpha" type="matrix" values="0 0 0 0 0 0 0 0 0 0 0 0 0 0 0 0 0 0 127 0"/>
<feOffset dy="4"/>
<feGaussianBlur stdDeviation="2"/>
<feColorMatrix type="matrix" values="0 0 0 0 0 0 0 0 0 0 0 0 0 0 0 0 0 0 0.25 0"/>
<feBlend mode="normal" in2="BackgroundImageFix" result="effect1_dropShadow"/>
<feBlend mode="normal" in="SourceGraphic" in2="effect1_dropShadow" result="shape"/>
</filter>
</defs>
</svg>
