<svg width="565" height="394" viewBox="0 0 565 394" fill="none" xmlns="http://www.w3.org/2000/svg">
<g style="mix-blend-mode:lighten">
<path d="M149.625 143.375C149.625 149.938 146.604 154.469 140.562 156.969L148.969 174H142.25L134.656 158.594C132.594 158.906 130.438 159.062 128.188 159.062H116.688V174H110.906V129.75H129.062C135.604 129.75 140.49 130.646 143.719 132.438C147.656 134.604 149.625 138.25 149.625 143.375ZM128.969 153.812C133.635 153.812 137.094 153.167 139.344 151.875C142.115 150.271 143.5 147.562 143.5 143.75C143.5 138.792 140.292 135.979 133.875 135.312C132.021 135.104 130.115 135 128.156 135H116.688V153.812H128.969ZM159.344 129.75H192.375V135H165.125V146.938H189.406V152.188H165.125V168.75H193V174H159.344V129.75ZM197.188 129.75H203.656L215.156 155.156C215.677 156.323 216.156 157.479 216.594 158.625C217.594 161.188 218.365 163.281 218.906 164.906H219.188C219.479 163.969 219.802 163.021 220.156 162.062L221.281 159C221.719 157.875 222.208 156.729 222.75 155.562L234.438 129.75H240.562L220.25 174.625H217.5L197.188 129.75ZM247.906 129.75H280.938V135H253.688V146.938H277.969V152.188H253.688V168.75H281.562V174H247.906V129.75ZM329.438 143.375C329.438 149.938 326.417 154.469 320.375 156.969L328.781 174H322.062L314.469 158.594C312.406 158.906 310.25 159.062 308 159.062H296.5V174H290.719V129.75H308.875C315.417 129.75 320.302 130.646 323.531 132.438C327.469 134.604 329.438 138.25 329.438 143.375ZM308.781 153.812C313.448 153.812 316.906 153.167 319.156 151.875C321.927 150.271 323.312 147.562 323.312 143.75C323.312 138.792 320.104 135.979 313.688 135.312C311.833 135.104 309.927 135 307.969 135H296.5V153.812H308.781ZM340.375 164.031C344.25 166.531 348.188 168.177 352.188 168.969C353.542 169.24 354.917 169.375 356.312 169.375C357.708 169.375 359.146 169.25 360.625 169C362.125 168.729 363.448 168.292 364.594 167.688C367.177 166.312 368.469 164.198 368.469 161.344C368.469 158.406 366.302 156.354 361.969 155.188C360.698 154.854 359.344 154.552 357.906 154.281L353.438 153.5C347.75 152.521 343.781 151.083 341.531 149.188C339.448 147.458 338.406 145.125 338.406 142.188C338.406 138.188 340.323 134.948 344.156 132.469C347.573 130.24 351.604 129.125 356.25 129.125C360.708 129.125 364.719 129.854 368.281 131.312C369.552 131.812 370.875 132.438 372.25 133.188L370.125 138.281C367.104 136.469 363.542 135.292 359.438 134.75C358.146 134.562 356.896 134.469 355.688 134.469C352.917 134.469 350.469 135 348.344 136.062C345.865 137.312 344.625 139.042 344.625 141.25C344.625 143.583 346.198 145.292 349.344 146.375C350.76 146.875 352.365 147.281 354.156 147.594L359.719 148.562C364.406 149.438 367.656 150.427 369.469 151.531C371.281 152.635 372.615 153.875 373.469 155.25C374.344 156.604 374.781 158.417 374.781 160.688C374.781 162.938 374.25 164.958 373.188 166.75C372.125 168.542 370.708 170.021 368.938 171.188C365.479 173.5 361.073 174.656 355.719 174.656C350.719 174.656 346.021 173.573 341.625 171.406C340.188 170.698 338.854 169.885 337.625 168.969L340.375 164.031ZM384.781 129.75H417.812V135H390.562V146.938H414.844V152.188H390.562V168.75H418.438V174H384.781V129.75ZM427.594 129.75H445.75C452.521 129.75 457.969 131.646 462.094 135.438C466.365 139.354 468.5 144.594 468.5 151.156C468.5 158.094 466.312 163.646 461.938 167.812C457.625 171.938 451.938 174 444.875 174H427.594V129.75ZM445.656 168.75C450.844 168.75 454.938 167.188 457.938 164.062C460.896 160.979 462.375 156.802 462.375 151.531C462.375 146.448 460.74 142.406 457.469 139.406C454.281 136.469 450.073 135 444.844 135H433.375V168.75H445.656ZM110.906 204.75H129.062C135.833 204.75 141.281 206.646 145.406 210.438C149.677 214.354 151.812 219.594 151.812 226.156C151.812 233.094 149.625 238.646 145.25 242.812C140.938 246.938 135.25 249 128.188 249H110.906V204.75ZM128.969 243.75C134.156 243.75 138.25 242.188 141.25 239.062C144.208 235.979 145.688 231.802 145.688 226.531C145.688 221.448 144.052 217.406 140.781 214.406C137.594 211.469 133.385 210 128.156 210H116.688V243.75H128.969ZM160.906 204.75H193.938V210H166.688V221.938H190.969V227.188H166.688V243.75H194.562V249H160.906V204.75ZM204.938 239.031C208.812 241.531 212.75 243.177 216.75 243.969C218.104 244.24 219.479 244.375 220.875 244.375C222.271 244.375 223.708 244.25 225.188 244C226.688 243.729 228.01 243.292 229.156 242.688C231.74 241.312 233.031 239.198 233.031 236.344C233.031 233.406 230.865 231.354 226.531 230.188C225.26 229.854 223.906 229.552 222.469 229.281L218 228.5C212.312 227.521 208.344 226.083 206.094 224.188C204.01 222.458 202.969 220.125 202.969 217.188C202.969 213.188 204.885 209.948 208.719 207.469C212.135 205.24 216.167 204.125 220.812 204.125C225.271 204.125 229.281 204.854 232.844 206.312C234.115 206.812 235.438 207.438 236.812 208.188L234.688 213.281C231.667 211.469 228.104 210.292 224 209.75C222.708 209.562 221.458 209.469 220.25 209.469C217.479 209.469 215.031 210 212.906 211.062C210.427 212.312 209.188 214.042 209.188 216.25C209.188 218.583 210.76 220.292 213.906 221.375C215.323 221.875 216.927 222.281 218.719 222.594L224.281 223.562C228.969 224.438 232.219 225.427 234.031 226.531C235.844 227.635 237.177 228.875 238.031 230.25C238.906 231.604 239.344 233.417 239.344 235.688C239.344 237.938 238.812 239.958 237.75 241.75C236.688 243.542 235.271 245.021 233.5 246.188C230.042 248.5 225.635 249.656 220.281 249.656C215.281 249.656 210.583 248.573 206.188 246.406C204.75 245.698 203.417 244.885 202.188 243.969L204.938 239.031ZM288.062 218.375C288.062 224.938 285.042 229.469 279 231.969L287.406 249H280.688L273.094 233.594C271.031 233.906 268.875 234.062 266.625 234.062H255.125V249H249.344V204.75H267.5C274.042 204.75 278.927 205.646 282.156 207.438C286.094 209.604 288.062 213.25 288.062 218.375ZM267.406 228.812C272.073 228.812 275.531 228.167 277.781 226.875C280.552 225.271 281.938 222.562 281.938 218.75C281.938 213.792 278.729 210.979 272.312 210.312C270.458 210.104 268.552 210 266.594 210H255.125V228.812H267.406ZM297.781 204.75H330.812V210H303.562V221.938H327.844V227.188H303.562V243.75H331.438V249H297.781V204.75ZM335.625 204.75H342.094L353.594 230.156C354.115 231.323 354.594 232.479 355.031 233.625C356.031 236.188 356.802 238.281 357.344 239.906H357.625C357.917 238.969 358.24 238.021 358.594 237.062L359.719 234C360.156 232.875 360.646 231.729 361.188 230.562L372.875 204.75H379L358.688 249.625H355.938L335.625 204.75ZM386.344 204.75H419.375V210H392.125V221.938H416.406V227.188H392.125V243.75H420V249H386.344V204.75ZM467.875 218.375C467.875 224.938 464.854 229.469 458.812 231.969L467.219 249H460.5L452.906 233.594C450.844 233.906 448.688 234.062 446.438 234.062H434.938V249H429.156V204.75H447.312C453.854 204.75 458.74 205.646 461.969 207.438C465.906 209.604 467.875 213.25 467.875 218.375ZM447.219 228.812C451.885 228.812 455.344 228.167 457.594 226.875C460.365 225.271 461.75 222.562 461.75 218.75C461.75 213.792 458.542 210.979 452.125 210.312C450.271 210.104 448.365 210 446.406 210H434.938V228.812H447.219Z" fill="url(#paint0_radial)"/>
<path d="M105.156 180.406H471.844V183.594H105.156V180.406Z" fill="url(#paint1_radial)"/>
</g>
<defs>
<radialGradient id="paint0_radial" cx="0" cy="0" r="1" gradientUnits="userSpaceOnUse" gradientTransform="translate(288.5 185) rotate(90) scale(71 236.5)">
<stop stop-color="#10EDE0"/>
<stop offset="0.885417" stop-color="#00F7BB" stop-opacity="0.34375"/>
<stop offset="1" stop-color="#0FF1E4" stop-opacity="0"/>
</radialGradient>
<radialGradient id="paint1_radial" cx="0" cy="0" r="1" gradientUnits="userSpaceOnUse" gradientTransform="translate(288.5 185) rotate(90) scale(71 236.5)">
<stop stop-color="#10EDE0"/>
<stop offset="0.885417" stop-color="#00F7BB" stop-opacity="0.34375"/>
<stop offset="1" stop-color="#0FF1E4" stop-opacity="0"/>
</radialGradient>
</defs>
</svg>
